<?xml version="1.0" ?><svg viewBox="0 0 32 32" xmlns="http://www.w3.org/2000/svg"><title/><g data-name="Layer 6" id="Layer_6"><path d="M17.86,6.5a8.85,8.85,0,0,0-8,5.19,5.09,5.09,0,0,0-1.94-.4A5.15,5.15,0,1,0,10.19,21a8.84,8.84,0,0,0,7.68,4.47,1,1,0,0,0,1-1V7.5A1,1,0,0,0,17.86,6.5Zm-10,13.1a3.15,3.15,0,1,1,0-6.3,3.1,3.1,0,0,1,1.32.3A8.84,8.84,0,0,0,9,15.35v1.31A8.81,8.81,0,0,0,9.4,19.2,3.13,3.13,0,0,1,7.87,19.6Zm9,3.82A6.85,6.85,0,0,1,11,16.65V15.35a6.85,6.85,0,0,1,5.84-6.77Z"/><path d="M21.29,9.21a1,1,0,0,0-1.41,1.41,7.62,7.62,0,0,1,0,10.76,1,1,0,1,0,1.41,1.41A9.62,9.62,0,0,0,21.29,9.21Z"/></g></svg>