<?xml version="1.0" ?><svg viewBox="0 0 32 32" xmlns="http://www.w3.org/2000/svg"><title/><g data-name="Layer 22" id="Layer_22"><path d="M14.36,17.83a1,1,0,0,0-.14-.15,1,1,0,0,0-.65-.24H7.92a1,1,0,1,0,0,2h3.23l-7.4,7.4a1,1,0,1,0,1.41,1.41l7.4-7.4v3.23a1,1,0,1,0,2,0V18.44s0-.05,0-.08A1,1,0,0,0,14.36,17.83Z"/><path d="M17.83,14.36a1,1,0,0,0,.54.2h5.72a1,1,0,1,0,0-2H20.85l7.4-7.4a1,1,0,0,0-1.41-1.41l-7.4,7.4V7.92a1,1,0,1,0-2,0v5.65h0a1,1,0,0,0,.24.65A1,1,0,0,0,17.83,14.36Z"/><path d="M20.85,19.44h3.23a1,1,0,1,0,0-2H18.44a1,1,0,0,0-.65.24,1,1,0,0,0-.14.15,1,1,0,0,0-.2.54s0,.05,0,.08v5.64a1,1,0,1,0,2,0V20.85l7.4,7.4a1,1,0,0,0,1.41-1.41Z"/><path d="M13.56,6.92a1,1,0,0,0-1,1v3.23l-7.4-7.4A1,1,0,0,0,3.75,5.17l7.4,7.4H7.92a1,1,0,1,0,0,2h5.65a1,1,0,0,0,.65-.24,1,1,0,0,0,.14-.15,1,1,0,0,0,.2-.54s0-.05,0-.08V7.92A1,1,0,0,0,13.56,6.92Z"/></g></svg>