<?xml version="1.0" ?><svg viewBox="0 0 32 32" xmlns="http://www.w3.org/2000/svg"><title/><g data-name="Layer 7" id="Layer_7"><path d="M17.38,6.75a8.85,8.85,0,0,0-8,5.19,5.09,5.09,0,0,0-1.94-.4,5.15,5.15,0,1,0,2.31,9.73,8.84,8.84,0,0,0,7.68,4.47,1,1,0,0,0,1-1v-17A1,1,0,0,0,17.38,6.75Zm-10,13.1a3.15,3.15,0,0,1,0-6.3,3.1,3.1,0,0,1,1.32.3,8.85,8.85,0,0,0-.18,1.75V16.9a8.81,8.81,0,0,0,.38,2.55A3.13,3.13,0,0,1,7.4,19.85Zm9,3.82a6.85,6.85,0,0,1-5.84-6.77V15.59a6.85,6.85,0,0,1,5.84-6.77Z"/><path d="M21.41,9.45A1,1,0,0,0,20,10.86a7.6,7.6,0,0,1,0,10.76A1,1,0,1,0,21.41,23a9.6,9.6,0,0,0,0-13.59Z"/><path d="M23.9,7a1,1,0,0,0-1.41,1.41,11.12,11.12,0,0,1,0,15.7,1,1,0,1,0,1.41,1.41A13.1,13.1,0,0,0,23.9,7Z"/></g></svg>